# xmcd CD database file
#
# Track frame offsets:
#	150
#	12958
#	24380
#	40193
#	52577
#	74895
#	83703
#	101140
#	117484
#	127891
#	140126
#	155541
#
# Disc length: 2288 seconds
#
# Revision: 1
# Processed by: cddbd v1.5.2PL0 Copyright (c) Steve Scherf et al.
# Submitted via: CDex 1.51
#
DISCID=a008ee0c
DTITLE=Keith Glass - Smoke and Mirrors
DYEAR=1997
DGENRE=Country
TTITLE0=Smoke and Mirrors
TTITLE1=What This Baby Will Do
TTITLE2=Have One On Me
TTITLE3=Girl Wonder
TTITLE4=Time For One More
TTITLE5=Let's Make It Up
TTITLE6=The Nips Are Getting Bigger
TTITLE7=Hidden Agenda
TTITLE8=Go Figure
TTITLE9=I Can't Think Of Everything
TTITLE10=Larrikin Town
TTITLE11=Hooked On Honky Tonk
EXTD=YEAR: 1997
EXTT0=
EXTT1=
EXTT2=
EXTT3=
EXTT4=
EXTT5=
EXTT6=
EXTT7=
EXTT8=
EXTT9=
EXTT10=
EXTT11=
PLAYORDER=
